<?xml version="1.0" standalone="no"?>
<!DOCTYPE svg PUBLIC "-//W3C//DTD SVG 20010904//EN"
 "http://www.w3.org/TR/2001/REC-SVG-20010904/DTD/svg10.dtd">
<svg version="1.0" xmlns="http://www.w3.org/2000/svg"
 width="1200.000000pt" height="307.000000pt" viewBox="0 0 1200.000000 307.000000"
 preserveAspectRatio="xMidYMid meet">

<g transform="translate(0.000000,307.000000) scale(0.100000,-0.100000)"
fill="#008000" stroke="none">
<path d="M2175 3064 c-486 -49 -825 -260 -990 -616 -54 -118 -76 -216 -82
-370 -6 -160 6 -264 48 -393 106 -329 396 -570 781 -649 265 -54 511 -44 804
34 l122 32 35 76 c47 101 74 188 93 292 13 79 13 86 -3 97 -19 14 -43 16 -59
5 -6 -4 -30 -44 -54 -90 -129 -243 -320 -361 -583 -362 -118 0 -212 22 -327
77 -82 40 -107 58 -190 142 -64 64 -109 121 -137 171 -113 202 -158 488 -118
750 51 336 237 568 530 660 96 30 272 38 375 16 190 -40 333 -165 400 -348 28
-77 36 -88 64 -88 47 0 55 18 45 100 -5 41 -15 145 -22 230 l-12 155 -99 22
c-199 44 -488 70 -621 57z"/>
<path d="M4146 3060 c-238 -30 -440 -122 -602 -273 -143 -134 -235 -293 -292
-506 -22 -85 -25 -116 -25 -266 -1 -152 2 -180 25 -266 48 -177 121 -309 239
-434 170 -178 389 -279 671 -307 585 -59 1077 307 1158 861 19 126 8 332 -23
453 -100 385 -371 641 -764 723 -91 18 -296 27 -387 15z m243 -125 c187 -44
355 -210 446 -439 61 -156 95 -347 95 -541 0 -516 -235 -837 -613 -837 -172 0
-295 50 -413 167 -115 115 -191 264 -241 474 -34 145 -43 417 -19 572 32 204
94 336 211 455 75 75 154 122 255 148 72 19 199 19 279 1z"/>
<path d="M9305 3063 c-281 -26 -557 -169 -720 -375 -155 -196 -229 -417 -228
-683 2 -500 312 -874 815 -981 111 -24 372 -24 475 -1 383 87 654 325 766 672
39 120 50 196 50 340 1 654 -489 1089 -1158 1028z m270 -142 c85 -30 189 -105
252 -181 31 -37 78 -112 108 -175 91 -186 126 -353 126 -600 0 -345 -85 -584
-260 -728 -98 -80 -207 -117 -351 -117 -241 0 -417 111 -544 342 -86 156 -133
344 -143 569 -20 483 152 814 468 899 98 27 256 22 344 -9z"/>
<path d="M11352 3060 c-266 -38 -455 -190 -507 -411 -43 -183 7 -356 145 -503
82 -87 135 -126 301 -222 171 -98 213 -127 273 -188 74 -76 109 -160 114 -271
3 -73 0 -100 -17 -145 -26 -70 -88 -134 -161 -169 -49 -23 -67 -26 -165 -26
-104 0 -114 2 -175 32 -127 63 -222 171 -306 347 -41 86 -48 96 -72 96 -53 0
-56 -8 -49 -127 6 -120 38 -272 66 -319 11 -18 42 -41 82 -60 316 -154 751
-111 958 96 122 123 180 307 151 482 -16 94 -41 157 -96 240 -78 117 -167 186
-404 312 -212 113 -281 171 -341 286 -20 38 -24 60 -24 135 0 78 4 97 27 140
50 94 133 150 241 163 213 25 366 -72 448 -282 29 -75 42 -85 96 -71 25 6 25
6 18 88 -9 112 -23 201 -41 269 l-16 56 -140 27 c-155 29 -309 39 -406 25z"/>
<path d="M7 3012 c-7 -9 -7 -22 -1 -40 8 -24 17 -27 88 -38 88 -14 117 -34
138 -93 19 -52 19 -1560 0 -1612 -20 -58 -50 -79 -137 -94 -43 -7 -82 -19 -86
-27 -11 -16 -11 -40 -1 -53 10 -14 814 -14 824 0 12 15 9 53 -3 61 -6 4 -45
13 -86 20 -87 15 -117 37 -136 98 -9 31 -12 226 -12 806 0 836 -1 820 57 863
17 12 57 25 99 32 78 11 96 26 86 66 l-6 24 -406 0 c-323 0 -409 -3 -418 -13z"/>
<path d="M5584 3003 c-12 -47 -3 -55 83 -72 90 -18 127 -40 158 -92 28 -48 31
-188 11 -535 -9 -153 -20 -371 -26 -484 -19 -373 -41 -554 -75 -619 -19 -38
-53 -56 -128 -70 -32 -6 -62 -13 -68 -16 -13 -9 -11 -51 4 -61 6 -5 156 -9
332 -8 l320 0 3 31 c4 39 -9 47 -92 62 -85 15 -102 23 -126 64 -19 30 -20 53
-20 342 0 341 19 1046 29 1057 3 4 35 -61 70 -145 36 -84 147 -332 249 -552
171 -371 295 -657 354 -815 22 -60 26 -65 56 -68 30 -3 34 0 53 45 89 204 175
396 249 553 163 344 471 975 481 985 6 6 9 -235 7 -685 -2 -569 -6 -700 -17
-722 -17 -33 -60 -55 -128 -64 -71 -9 -90 -24 -78 -60 l10 -28 395 0 395 0 3
31 c4 38 -11 48 -88 58 -120 16 -137 42 -150 233 -25 361 -38 1352 -19 1440
14 69 48 99 135 117 38 8 79 15 90 15 32 0 49 26 38 56 l-9 26 -287 1 -287 2
-11 -45 c-22 -88 -85 -231 -285 -640 -344 -706 -376 -770 -384 -766 -11 7
-188 366 -381 775 -172 364 -233 519 -245 621 l-7 55 -304 0 c-305 0 -305 0
-310 -22z"/>
<path d="M3535 488 c-40 -14 -40 -15 -24 -34 11 -13 14 -57 14 -193 l0 -176
-38 -1 c-50 -1 -57 14 -57 120 0 74 -3 87 -19 96 -27 14 -77 13 -109 -4 -33
-17 -68 -54 -59 -62 12 -13 52 6 62 28 14 33 47 29 64 -6 18 -39 7 -56 -58
-81 -58 -22 -76 -44 -67 -81 10 -37 47 -50 94 -32 33 13 41 13 60 0 14 -9 31
-12 49 -7 16 5 63 7 106 6 44 -2 77 1 77 7 0 5 -9 12 -20 15 -19 5 -20 14 -20
211 0 222 2 214 -55 194z m-165 -358 c0 -22 -2 -40 -4 -40 -2 0 -11 -3 -19 -6
-15 -5 -47 20 -47 37 0 14 39 49 55 49 11 0 15 -11 15 -40z"/>
<path d="M5455 488 c-40 -14 -40 -15 -21 -33 13 -14 16 -44 16 -192 0 -166 -1
-175 -20 -180 -43 -11 -17 -23 50 -23 67 0 93 12 50 23 -19 5 -20 14 -20 211
0 222 2 214 -55 194z"/>
<path d="M10388 488 c-29 -10 -35 -22 -18 -33 6 -3 10 -37 10 -76 l0 -69 -47
0 c-60 0 -104 -26 -127 -75 -34 -71 -8 -142 61 -171 28 -12 39 -12 73 0 35 12
40 12 40 -1 0 -10 6 -13 16 -9 9 3 33 9 55 12 21 4 39 11 39 16 0 5 -8 8 -17
6 -26 -5 -31 31 -32 230 -1 195 1 190 -53 170z m-18 -218 c17 -31 9 -161 -11
-173 -23 -15 -66 0 -85 29 -23 34 -23 103 -1 137 22 34 80 39 97 7z"/>
<path d="M537 469 c-22 -13 -22 -58 -1 -66 39 -15 73 46 37 65 -12 7 -25 7
-36 1z"/>
<path d="M2476 464 c-19 -18 -19 -20 -6 -45 12 -21 40 -25 58 -7 18 18 14 46
-7 58 -25 13 -27 13 -45 -6z"/>
<path d="M5303 473 c-22 -8 -16 -61 7 -68 43 -14 69 44 31 65 -11 5 -21 10
-23 9 -2 0 -9 -3 -15 -6z"/>
<path d="M10900 465 c-14 -17 -5 -51 15 -59 35 -13 63 21 45 55 -13 23 -43 25
-60 4z"/>
<path d="M1051 341 c-6 -10 -24 -24 -41 -31 -35 -14 -38 -25 -10 -33 18 -5 20
-14 20 -101 0 -91 1 -96 25 -112 29 -19 86 -12 106 13 12 15 11 16 -8 11 -12
-3 -31 1 -42 9 -18 12 -21 25 -21 98 l0 84 37 3 c52 4 56 28 4 28 -37 0 -41 2
-41 25 0 29 -15 33 -29 6z"/>
<path d="M2294 332 c-17 -15 -39 -32 -50 -39 -18 -11 -18 -12 4 -12 21 -1 22
-5 22 -85 0 -47 4 -96 9 -109 13 -33 58 -43 105 -23 40 17 49 31 13 22 -46
-11 -60 12 -61 105 l-1 84 38 3 c50 4 52 32 2 32 -31 0 -35 3 -35 25 0 32 -7
31 -46 -3z"/>
<path d="M9100 335 c-13 -13 -31 -27 -42 -31 -22 -7 -24 -24 -3 -24 12 0 15
-16 15 -84 0 -47 4 -96 10 -110 12 -33 65 -44 109 -22 37 20 41 31 7 22 -43
-11 -56 15 -56 109 l0 84 38 3 c46 4 45 22 -3 26 -30 3 -35 7 -35 28 0 31 -10
30 -40 -1z"/>
<path d="M11099 344 c-7 -8 -26 -22 -43 -31 -31 -16 -31 -16 -8 -26 21 -9 22
-16 22 -107 0 -61 4 -100 12 -108 23 -23 128 -9 128 17 0 5 -12 6 -27 3 -40
-8 -53 19 -53 109 l0 78 32 3 c46 4 49 28 4 28 -32 0 -36 3 -36 25 0 29 -12
32 -31 9z"/>
<path d="M10912 307 c-41 -17 -43 -20 -28 -36 12 -13 16 -38 16 -94 0 -67 -3
-78 -22 -91 -21 -15 -18 -16 52 -15 47 0 68 3 55 8 -18 7 -20 20 -25 128 l-5
119 -43 -19z"/>
<path d="M533 304 c-33 -14 -41 -28 -23 -39 6 -3 10 -45 10 -92 0 -76 -2 -85
-20 -90 -39 -10 -8 -23 56 -23 62 0 85 12 44 23 -19 5 -20 14 -20 121 0 64 -3
116 -7 115 -5 0 -23 -7 -40 -15z"/>
<path d="M695 302 c-23 -11 -35 -21 -28 -25 29 -18 27 -197 -3 -197 -8 0 -14
-4 -14 -10 0 -6 28 -10 65 -10 37 0 65 4 65 10 0 6 -6 10 -14 10 -20 0 -27 44
-17 118 8 65 19 82 57 82 36 0 44 -20 44 -112 0 -72 -3 -88 -15 -88 -8 0 -15
-4 -15 -10 0 -6 28 -10 65 -10 37 0 65 4 65 10 0 6 -6 10 -14 10 -20 0 -26 23
-26 109 0 95 -14 121 -68 121 -20 0 -49 -7 -64 -14 -26 -14 -28 -13 -28 5 0
23 -4 23 -55 1z"/>
<path d="M1483 304 c-31 -13 -45 -34 -23 -34 6 0 10 -37 10 -91 0 -82 -2 -91
-20 -96 -44 -12 -16 -23 55 -23 43 0 75 4 75 10 0 6 -9 10 -19 10 -25 0 -31
19 -31 98 0 84 9 100 44 84 34 -15 58 -5 54 22 -4 28 -43 33 -69 10 -19 -17
-20 -17 -26 4 -6 25 -7 25 -50 6z"/>
<path d="M1693 304 c-33 -14 -41 -28 -23 -39 6 -3 10 -45 10 -92 0 -76 -2 -85
-20 -90 -41 -11 -18 -23 45 -23 61 0 84 11 50 24 -11 4 -15 23 -15 78 0 82 16
118 54 118 41 0 56 -29 56 -112 0 -67 -3 -77 -22 -91 -22 -15 -19 -16 50 -16
68 -1 95 11 52 22 -18 5 -20 14 -20 86 0 44 -5 92 -12 106 -17 38 -59 44 -135
20 -17 -6 -23 -3 -23 9 0 19 -5 19 -47 0z"/>
<path d="M2483 304 c-33 -14 -41 -28 -23 -39 6 -3 10 -45 10 -92 0 -76 -2 -85
-20 -90 -39 -10 -8 -23 56 -23 62 0 85 12 44 23 -19 5 -20 14 -20 121 0 64 -3
116 -7 115 -5 0 -23 -7 -40 -15z"/>
<path d="M2953 304 c-33 -14 -41 -28 -23 -39 6 -3 10 -45 10 -92 0 -76 -2 -85
-20 -90 -41 -11 -18 -23 44 -23 65 0 95 13 54 23 -20 6 -21 10 -15 89 7 86 19
108 58 108 37 0 49 -28 49 -109 0 -70 -2 -80 -22 -94 -22 -15 -19 -16 50 -16
68 -1 95 11 53 22 -17 4 -19 16 -22 102 -3 82 -7 99 -23 111 -26 19 -86 18
-114 -2 -22 -15 -24 -15 -29 5 -6 24 -7 24 -50 5z"/>
<path d="M4723 304 c-33 -14 -41 -28 -23 -39 6 -3 10 -45 10 -92 0 -76 -2 -85
-20 -90 -41 -11 -18 -23 44 -23 65 0 95 13 54 23 -20 6 -21 10 -15 87 6 87 17
110 53 110 42 0 54 -24 54 -109 0 -70 -2 -80 -22 -94 -22 -15 -19 -16 50 -16
68 -1 95 11 52 22 -18 5 -20 14 -20 86 0 44 -5 92 -12 106 -17 38 -59 44 -135
20 -17 -6 -23 -3 -23 9 0 19 -5 19 -47 0z"/>
<path d="M5115 313 c-92 -22 -138 -160 -72 -221 52 -49 120 -51 170 -4 32 31
36 49 5 28 -12 -9 -40 -16 -61 -16 -53 0 -87 37 -87 95 0 82 65 122 117 73 20
-19 25 -20 33 -8 12 18 12 22 2 36 -8 13 -78 24 -107 17z"/>
<path d="M5303 304 c-31 -13 -45 -34 -23 -34 6 0 10 -37 10 -91 0 -82 -2 -91
-20 -96 -39 -10 -8 -23 56 -23 62 0 85 12 44 23 -19 5 -20 14 -20 121 0 64 -3
116 -7 115 -5 0 -23 -7 -40 -15z"/>
<path d="M6073 304 c-33 -14 -41 -28 -23 -39 6 -3 10 -45 10 -92 0 -76 -2 -85
-20 -90 -41 -11 -18 -23 44 -23 65 0 95 13 54 23 -20 6 -21 10 -15 87 6 87 17
110 53 110 42 0 54 -24 54 -109 0 -70 -2 -80 -22 -94 -22 -15 -19 -16 50 -16
68 -1 95 11 53 22 -17 4 -19 16 -22 102 -3 83 -7 99 -24 111 -20 15 -75 15
-122 -1 -18 -6 -23 -3 -23 9 0 19 -5 19 -47 0z"/>
<path d="M6545 303 c-40 -21 -41 -23 -27 -32 8 -5 15 -42 19 -95 6 -83 5 -87
-15 -93 -45 -11 -19 -23 51 -22 68 0 71 1 50 16 -21 14 -23 24 -23 94 0 84 12
109 54 109 38 0 46 -19 46 -112 0 -72 -3 -88 -15 -88 -8 0 -15 -4 -15 -10 0
-6 28 -10 65 -10 37 0 65 4 65 10 0 6 -6 10 -14 10 -18 0 -26 31 -26 100 0 64
20 100 54 100 42 0 56 -29 56 -114 0 -69 -2 -78 -20 -83 -43 -11 -17 -23 50
-23 67 0 93 12 50 23 -18 5 -20 14 -20 87 0 78 -10 116 -34 132 -19 13 -76 9
-107 -8 -28 -14 -32 -14 -48 0 -22 20 -77 20 -113 2 -26 -14 -28 -13 -28 5 0
23 -15 24 -55 2z"/>
<path d="M7353 304 c-33 -14 -41 -28 -23 -39 6 -3 10 -45 10 -92 0 -76 -2 -85
-20 -90 -41 -11 -18 -23 44 -23 65 0 95 13 55 23 -20 5 -21 11 -17 86 5 86 17
111 54 111 42 0 54 -24 54 -109 0 -70 -2 -80 -22 -94 -22 -15 -19 -16 50 -16
68 -1 95 11 52 22 -18 5 -20 14 -20 86 0 44 -5 92 -12 106 -17 38 -59 44 -135
20 -17 -6 -23 -3 -23 9 0 19 -5 19 -47 0z"/>
<path d="M8008 302 c-34 -16 -36 -18 -22 -36 8 -12 14 -43 14 -80 0 -75 -8
-106 -26 -106 -8 0 -14 -4 -14 -10 0 -6 28 -10 65 -10 37 0 65 4 65 10 0 6 -7
10 -15 10 -12 0 -15 16 -15 88 0 93 8 112 46 112 42 0 54 -25 54 -111 0 -62
-3 -81 -15 -85 -34 -14 -11 -24 53 -23 64 0 66 1 45 16 -21 14 -23 24 -23 99
0 80 1 85 25 96 19 8 31 8 50 0 24 -11 25 -15 25 -102 0 -73 -3 -90 -15 -90
-8 0 -15 -4 -15 -10 0 -6 28 -10 65 -10 37 0 65 4 65 10 0 6 -6 10 -14 10 -19
0 -26 32 -26 121 0 61 -4 79 -18 92 -23 21 -74 22 -113 2 -27 -14 -32 -14 -51
0 -28 19 -71 19 -108 0 -28 -15 -30 -14 -30 5 0 24 -3 24 -52 2z"/>
<path d="M8753 303 c-32 -16 -44 -33 -23 -33 6 0 10 -37 10 -91 0 -82 -2 -91
-20 -96 -11 -3 -17 -9 -14 -14 7 -12 134 -11 134 1 0 6 -6 10 -14 10 -22 0
-28 32 -20 110 5 53 11 73 25 80 25 14 45 12 63 -6 22 -22 23 -172 1 -180 -34
-13 -11 -24 50 -24 63 0 86 12 45 23 -18 5 -20 14 -20 94 0 108 -13 133 -68
133 -20 0 -49 -7 -64 -14 -26 -14 -28 -13 -28 5 0 23 -14 23 -57 2z"/>
<path d="M9896 301 c-34 -15 -37 -18 -22 -30 14 -12 16 -30 14 -100 l-3 -86
-35 -1 c-55 -1 -60 8 -60 107 0 66 -4 91 -16 103 -17 18 -70 21 -108 6 -28
-10 -66 -45 -66 -60 0 -22 36 -8 62 22 22 28 30 31 45 22 12 -8 18 -23 18 -49
0 -37 -2 -39 -46 -54 -76 -26 -94 -53 -69 -102 12 -22 68 -26 102 -8 14 8 23
8 31 0 14 -14 62 -14 88 -1 13 7 19 7 19 0 0 -6 27 -10 65 -10 61 0 84 11 50
24 -12 4 -15 23 -15 84 0 84 14 112 56 112 38 0 48 -17 52 -84 5 -77 -3 -116
-23 -116 -8 0 -15 -4 -15 -10 0 -6 30 -10 70 -10 40 0 70 4 70 10 0 6 -9 10
-19 10 -17 0 -19 9 -23 94 -2 75 -7 98 -22 115 -23 25 -74 28 -116 6 -28 -15
-30 -14 -30 5 0 24 -3 24 -54 1z m-168 -168 c-2 -31 -7 -39 -27 -41 -23 -4
-41 11 -41 35 0 18 29 43 51 43 17 0 20 -6 17 -37z"/>
<path d="M10725 313 c-28 -7 -46 -23 -56 -50 -13 -35 5 -69 51 -95 59 -33 68
-88 14 -88 -23 0 -31 6 -70 55 -15 19 -15 18 -10 -19 3 -22 11 -43 18 -48 19
-11 96 -10 119 3 54 28 41 107 -23 140 -43 22 -56 44 -41 67 16 27 32 25 63
-8 29 -31 30 -31 30 -9 0 13 -4 29 -8 35 -9 14 -60 24 -87 17z"/>
<path d="M11543 310 c-12 -5 -29 -20 -39 -35 -23 -36 -4 -78 50 -108 34 -18
41 -28 41 -52 0 -24 -5 -31 -23 -33 -26 -4 -72 32 -72 55 0 7 -5 13 -11 13
-16 0 -4 -71 13 -82 18 -11 81 -10 111 1 27 10 45 52 39 89 -2 15 -21 34 -50
53 -57 36 -67 52 -46 73 23 24 40 20 68 -16 25 -33 26 -33 26 -8 0 14 -4 31
-8 38 -11 17 -71 24 -99 12z"/>
<path d="M1251 297 c-63 -32 -89 -126 -51 -185 24 -39 80 -66 121 -57 36 8 79
42 79 62 0 14 -2 14 -18 0 -10 -10 -33 -17 -51 -17 -41 0 -91 47 -91 84 0 26
1 26 80 26 79 0 80 0 80 25 0 39 -42 75 -87 75 -21 0 -49 -6 -62 -13z m89 -22
c23 -28 4 -45 -50 -45 -54 0 -58 4 -34 38 18 26 65 30 84 7z"/>
<path d="M2035 294 c-16 -9 -36 -23 -42 -32 -35 -44 13 -44 49 0 22 28 30 31
45 22 12 -8 18 -23 18 -49 0 -36 -2 -38 -50 -57 -65 -26 -75 -35 -75 -69 0
-20 8 -34 25 -45 24 -15 29 -16 66 -1 37 14 43 15 64 1 26 -17 67 -11 87 13
11 14 10 15 -9 9 -33 -10 -44 21 -41 115 1 70 -1 84 -17 95 -25 18 -83 17
-120 -2z m75 -158 c0 -37 -19 -60 -43 -50 -41 15 -21 84 25 84 14 0 18 -8 18
-34z"/>
<path d="M2669 295 c-79 -43 -88 -166 -17 -217 42 -29 116 -31 155 -2 72 53
81 145 19 201 -30 28 -43 33 -83 33 -27 -1 -60 -7 -74 -15z m106 -29 c37 -55
31 -155 -10 -182 -23 -15 -27 -15 -50 0 -46 30 -57 145 -18 189 23 24 60 21
78 -7z"/>
<path d="M3867 292 c-39 -24 -71 -93 -63 -136 14 -76 88 -120 160 -96 33 11
66 42 66 64 0 5 -8 2 -18 -7 -11 -10 -35 -17 -59 -17 -34 0 -46 6 -67 31 -69
82 21 212 95 138 25 -25 45 -13 34 20 -5 18 -14 21 -63 21 -36 0 -67 -7 -85
-18z"/>
<path d="M4113 290 c-122 -74 -48 -262 92 -236 106 20 145 157 65 229 -38 34
-108 37 -157 7z m93 -8 c32 -21 48 -114 30 -170 -12 -35 -42 -47 -72 -27 -30
19 -44 53 -44 106 0 74 43 120 86 91z"/>
<path d="M4375 301 c-24 -5 -26 -8 -12 -13 14 -6 17 -21 17 -93 0 -48 5 -95
11 -106 17 -32 54 -41 102 -24 53 19 57 19 57 -1 0 -10 6 -14 14 -11 8 3 31 9
50 13 38 7 49 24 16 24 -19 0 -20 7 -20 110 0 120 3 114 -63 104 -38 -7 -38
-7 -17 -26 17 -16 20 -31 20 -91 0 -80 -9 -97 -51 -97 -45 0 -59 31 -59 132 0
96 2 94 -65 79z"/>
<path d="M5786 291 c-40 -27 -55 -57 -56 -113 -1 -115 139 -166 223 -82 53 53
44 158 -16 194 -42 26 -113 26 -151 1z m117 -41 c25 -48 19 -136 -11 -161 -49
-39 -97 11 -97 102 0 43 5 63 20 79 28 31 66 23 88 -20z"/>
<path d="M7059 287 c-91 -61 -65 -209 42 -231 102 -20 197 83 159 174 -32 78
-129 105 -201 57z m115 -19 c36 -58 31 -158 -10 -185 -22 -14 -26 -14 -48 0
-48 32 -60 144 -20 188 23 26 60 24 78 -3z"/>
<path d="M7655 301 c-24 -5 -26 -8 -12 -13 14 -6 17 -20 17 -87 0 -44 4 -91
10 -106 14 -37 51 -48 103 -30 53 19 57 19 57 -1 0 -11 5 -14 16 -10 9 3 33 9
55 12 43 7 52 21 17 26 -22 3 -23 8 -26 112 l-3 108 -31 -6 c-17 -3 -40 -6
-52 -7 -21 0 -21 0 2 -16 20 -14 22 -24 22 -92 0 -84 -8 -101 -51 -101 -41 0
-51 22 -57 125 -5 103 -3 100 -67 86z"/>
<path d="M8519 293 c-56 -34 -76 -120 -44 -182 32 -63 130 -76 181 -26 31 31
32 52 2 31 -45 -32 -107 -16 -133 34 -28 54 -23 59 68 62 76 3 82 5 85 25 2
14 -6 32 -22 48 -30 30 -96 34 -137 8z m96 -33 c0 -23 -4 -25 -47 -28 -52 -3
-61 8 -31 40 11 13 27 18 47 16 26 -2 31 -7 31 -28z"/>
<path d="M9279 292 c-15 -13 -22 -30 -22 -52 0 -33 11 -47 77 -93 29 -20 34
-48 11 -67 -21 -17 -61 1 -77 35 -6 14 -16 25 -21 25 -12 0 -1 -60 14 -75 15
-15 105 -11 124 5 49 41 36 102 -31 143 -35 21 -45 32 -42 50 5 35 46 35 74 0
l23 -28 1 26 c0 14 -5 30 -12 37 -19 19 -92 15 -119 -6z"/>
<path d="M11289 293 c-39 -24 -59 -65 -59 -118 0 -40 5 -52 34 -81 28 -28 41
-34 78 -34 46 0 81 18 99 52 11 20 10 20 -12 4 -46 -32 -108 -17 -134 34 -28
54 -23 59 68 62 76 3 82 5 85 25 2 14 -6 32 -22 48 -30 30 -96 34 -137 8z m89
-5 c7 -7 12 -20 12 -30 0 -15 -9 -18 -50 -18 -56 0 -62 9 -24 39 30 24 45 26
62 9z"/>
</g>
</svg>
